<svg width="23" height="21" viewBox="0 0 23 21" fill="none" xmlns="http://www.w3.org/2000/svg">
<path d="M9.18304 1.38551V4.16121H1.36061V1.38551H9.18304ZM9.7508 0.25H0.792855C0.477434 0.25 0.225098 0.502337 0.225098 0.817757V4.66589C0.225098 4.98131 0.477434 5.23364 0.792855 5.23364H9.7508C10.0662 5.23364 10.3186 4.98131 10.3186 4.66589V0.817757C10.3186 0.502337 10.0662 0.25 9.7508 0.25ZM21.7999 1.38551V4.16121H13.9774V1.38551H21.7999ZM22.3676 0.25H13.4097C13.0943 0.25 12.8419 0.502337 12.8419 0.817757V4.66589C12.8419 4.98131 13.0943 5.23364 13.4097 5.23364H22.3676C22.683 5.23364 22.9354 4.98131 22.9354 4.66589V0.817757C22.9354 0.502337 22.683 0.25 22.3676 0.25ZM21.7999 8.95561V11.7313H13.9774V8.95561H21.7999ZM22.3676 7.82009H13.4097C13.0943 7.82009 12.8419 8.07243 12.8419 8.38785V12.2991C12.8419 12.6145 13.0943 12.8668 13.4097 12.8668H22.3676C22.683 12.8668 22.9354 12.6145 22.9354 12.2991V8.38785C22.9354 8.07243 22.683 7.82009 22.3676 7.82009ZM9.18304 16.5257V19.3014H1.36061V16.5257H9.18304ZM9.7508 15.4533H0.792855C0.477434 15.4533 0.225098 15.7056 0.225098 16.021V19.9322C0.225098 20.1846 0.477434 20.4369 0.792855 20.4369H9.7508C10.0662 20.4369 10.3186 20.1846 10.3186 19.8692V16.021C10.3186 15.7056 10.0662 15.4533 9.7508 15.4533ZM21.7999 16.5257V19.3014H13.9774V16.5257H21.7999ZM22.3676 15.4533H13.4097C13.0943 15.4533 12.8419 15.7056 12.8419 16.021V19.9322C12.8419 20.2477 13.0943 20.5 13.4097 20.5H22.3676C22.683 20.5 22.9354 20.2477 22.9354 19.9322V16.021C22.9354 15.7056 22.683 15.4533 22.3676 15.4533ZM10.3186 8.38785C10.3186 8.07243 10.0662 7.82009 9.7508 7.82009H0.792855C0.477434 7.82009 0.225098 8.07243 0.225098 8.38785V12.2991C0.225098 12.6145 0.477434 12.8668 0.792855 12.8668H9.7508C10.0662 12.8668 10.3186 12.6145 10.3186 12.2991V8.38785ZM4.64099 11.6051L3.56856 10.5327L3.82089 10.2804L4.64099 11.1005L6.65968 9.08178L6.91201 9.33411L4.64099 11.6051Z" fill="black"/>
</svg>
