<svg width="23" height="10" viewBox="0 0 23 10" fill="none" xmlns="http://www.w3.org/2000/svg">
<path d="M10.7437 1.70623V8.68123H3.7687V1.70623H10.7437ZM11.25 0.693726H3.26245C2.9812 0.693726 2.7562 0.918726 2.7562 1.19998V9.18748C2.7562 9.46873 2.9812 9.69373 3.26245 9.69373H11.25C11.5312 9.69373 11.7562 9.46873 11.7562 9.18748V1.19998C11.7562 0.918726 11.5312 0.693726 11.25 0.693726ZM7.42495 3.11248C7.87495 3.11248 8.21245 3.22498 8.4937 3.39373C8.77495 3.56248 8.88745 3.89998 8.88745 4.23748C8.88745 4.46248 8.8312 4.68748 8.66245 4.85623C8.54995 5.02498 8.32495 5.19373 8.0437 5.36248C8.3812 5.53123 8.66245 5.75623 8.77495 5.92498C8.9437 6.14998 8.99995 6.37498 8.99995 6.59998C8.99995 6.99373 8.8312 7.27498 8.54995 7.55623C8.2687 7.78123 7.87495 7.89373 7.3687 7.89373C6.86245 7.89373 6.4687 7.78123 6.1312 7.55623C5.84995 7.33123 5.6812 7.04998 5.6812 6.59998C5.6812 6.31873 5.73745 6.09373 5.9062 5.86873C6.07495 5.64373 6.29995 5.47498 6.5812 5.30623C6.29995 5.13748 6.1312 4.96873 6.0187 4.74373C5.9062 4.57498 5.84995 4.34998 5.84995 4.12498C5.84995 3.78748 5.96245 3.50623 6.2437 3.28123C6.63745 3.22498 6.97495 3.11248 7.42495 3.11248ZM6.6937 6.65623C6.6937 6.82498 6.74995 6.99373 6.86245 7.10623C6.97495 7.21873 7.1437 7.27498 7.3687 7.27498C7.5937 7.27498 7.8187 7.21873 7.9312 7.10623C8.0437 6.99373 8.09995 6.88123 8.09995 6.71248C8.09995 6.54373 8.0437 6.43123 7.9312 6.31873C7.8187 6.20623 7.5937 6.03748 7.3687 5.92498C6.9187 6.03748 6.6937 6.31873 6.6937 6.65623ZM7.42495 3.84373C7.2562 3.84373 7.1437 3.89998 7.0312 3.95623C6.9187 4.01248 6.86245 4.18123 6.86245 4.29373C6.86245 4.40623 6.9187 4.51873 6.97495 4.63123C7.0312 4.74373 7.19995 4.85623 7.42495 4.96873C7.64995 4.85623 7.76245 4.74373 7.87495 4.68748C7.9312 4.57498 7.98745 4.46248 7.98745 4.34998C7.98745 4.18123 7.9312 4.06873 7.8187 4.01248C7.7062 3.95623 7.5937 3.84373 7.42495 3.84373ZM2.7562 1.70623V8.68123H-4.2188V1.70623H2.7562ZM3.26245 0.693726H-4.6688C-4.95005 0.693726 -5.17505 0.918726 -5.17505 1.19998V9.18748C-5.17505 9.46873 -4.95005 9.69373 -4.6688 9.69373H3.26245C3.5437 9.69373 3.7687 9.46873 3.7687 9.18748V1.19998C3.7687 0.918726 3.5437 0.693726 3.26245 0.693726ZM-1.68755 7.89373L0.0562015 4.01248H-2.25005V3.16873H1.12495V3.78748L-0.675049 7.83748H-1.68755V7.89373ZM18.7312 1.70623V8.68123H11.7562V1.70623H18.7312ZM19.2375 0.693726H11.25C10.9687 0.693726 10.7437 0.918726 10.7437 1.19998V9.18748C10.7437 9.46873 10.9687 9.69373 11.25 9.69373H19.2375C19.5187 9.69373 19.7437 9.46873 19.7437 9.18748V1.19998C19.7437 0.918726 19.5187 0.693726 19.2375 0.693726ZM17.0437 4.91248C17.0437 5.81248 16.875 6.54373 16.4812 6.99373C16.0875 7.44373 15.525 7.66873 14.7375 7.66873C14.4562 7.66873 14.2312 7.66873 14.1187 7.61248V6.82498C14.2875 6.88123 14.5125 6.88123 14.6812 6.88123C15.0187 6.88123 15.3 6.82498 15.525 6.71248C15.75 6.59998 15.9187 6.48748 16.0312 6.26248C16.1437 6.03748 16.2 5.75623 16.2 5.41873H16.1437C16.0312 5.64373 15.8624 5.75623 15.6937 5.86873C15.525 5.98123 15.3 5.98123 15.075 5.98123C14.6812 5.98123 14.3437 5.86873 14.1187 5.58748C13.8937 5.30623 13.7812 4.96873 13.7812 4.51873C13.7812 4.01248 13.95 3.61873 14.2312 3.33748C14.5125 3.05623 14.9062 2.88748 15.4125 2.88748C15.75 2.88748 16.0875 2.94373 16.3125 3.11248C16.5937 3.28123 16.7625 3.50623 16.9312 3.84373C16.9875 4.12498 17.0437 4.46248 17.0437 4.91248ZM15.3562 3.67498C15.1312 3.67498 14.9625 3.73123 14.85 3.89998C14.7374 4.06873 14.6812 4.23748 14.6812 4.51873C14.6812 4.74373 14.7374 4.91248 14.85 5.08123C14.9625 5.24998 15.1312 5.30623 15.3562 5.30623C15.5812 5.30623 15.75 5.24998 15.8625 5.08123C16.0312 4.96873 16.0875 4.79998 16.0875 4.63123C16.0875 4.34998 16.0312 4.18123 15.8625 4.01248C15.6937 3.73123 15.525 3.67498 15.3562 3.67498ZM26.7187 1.70623V8.68123H19.7437V1.70623H26.7187ZM27.1687 0.693726H19.2375C18.9562 0.693726 18.7312 0.918726 18.7312 1.19998V9.18748C18.7312 9.46873 18.9562 9.69373 19.2375 9.69373H27.225C27.5062 9.69373 27.7312 9.46873 27.7312 9.18748V1.19998C27.6749 0.918726 27.45 0.693726 27.1687 0.693726ZM22.1625 7.61248H21.15V4.91248V4.46248V3.95623C20.9812 4.12498 20.8687 4.23748 20.8125 4.29373L20.25 4.74373L19.8562 4.12498L21.375 2.94373H22.2187V7.61248H22.1625ZM26.7187 5.24998C26.7187 6.09373 26.6062 6.65623 26.325 7.04998C26.0437 7.44373 25.65 7.66873 25.0875 7.66873C24.525 7.66873 24.1312 7.44373 23.85 7.04998C23.5687 6.65623 23.4562 6.03748 23.4562 5.24998C23.4562 4.40623 23.5687 3.78748 23.85 3.39373C24.1312 2.99998 24.525 2.83123 25.0875 2.83123C25.65 2.83123 26.0437 3.05623 26.325 3.44998C26.6062 3.84373 26.7187 4.46248 26.7187 5.24998ZM24.4687 5.24998C24.4687 5.81248 24.525 6.26248 24.6375 6.48748C24.75 6.71248 24.9187 6.88123 25.1437 6.88123C25.3687 6.88123 25.5375 6.76873 25.65 6.48748C25.7625 6.26248 25.8187 5.81248 25.8187 5.24998C25.8187 4.68748 25.7625 4.23748 25.65 4.01248C25.5375 3.78748 25.3687 3.61873 25.1437 3.61873C24.9187 3.61873 24.75 3.73123 24.6375 4.01248C24.525 4.29373 24.4687 4.68748 24.4687 5.24998Z" fill="black"/>
</svg>
