<svg width="19" height="21" viewBox="0 0 19 21" fill="none" xmlns="http://www.w3.org/2000/svg">
<path d="M3.0625 0.125C1.4875 0.125 0.25 1.3625 0.25 2.9375C0.25 4.5125 1.4875 5.75 3.0625 5.75C4.6375 5.75 5.875 4.5125 5.875 2.9375C5.875 1.3625 4.6375 0.125 3.0625 0.125ZM3.0625 5.1875C1.825 5.1875 0.8125 4.175 0.8125 2.9375C0.8125 1.7 1.825 0.6875 3.0625 0.6875C4.3 0.6875 5.3125 1.7 5.3125 2.9375C5.3125 4.175 4.3 5.1875 3.0625 5.1875ZM3.0625 8.84375C2.275 8.84375 1.65625 9.4625 1.65625 10.25C1.65625 11.0375 2.275 11.6562 3.0625 11.6562C3.85 11.6562 4.46875 11.0375 4.46875 10.25C4.46875 9.4625 3.85 8.84375 3.0625 8.84375ZM3.0625 7.4375C1.4875 7.4375 0.25 8.675 0.25 10.25C0.25 11.825 1.4875 13.0625 3.0625 13.0625C4.6375 13.0625 5.875 11.825 5.875 10.25C5.875 8.675 4.6375 7.4375 3.0625 7.4375ZM3.0625 12.5C1.825 12.5 0.8125 11.4875 0.8125 10.25C0.8125 9.0125 1.825 8 3.0625 8C4.3 8 5.3125 9.0125 5.3125 10.25C5.3125 11.4875 4.3 12.5 3.0625 12.5ZM3.0625 14.75C1.4875 14.75 0.25 15.9875 0.25 17.5625C0.25 19.1375 1.4875 20.375 3.0625 20.375C4.6375 20.375 5.875 19.1375 5.875 17.5625C5.875 15.9875 4.6375 14.75 3.0625 14.75ZM3.0625 19.8125C1.825 19.8125 0.8125 18.8 0.8125 17.5625C0.8125 16.325 1.825 15.3125 3.0625 15.3125C4.3 15.3125 5.3125 16.325 5.3125 17.5625C5.3125 18.8 4.3 19.8125 3.0625 19.8125ZM7.5625 1.475H18.8125V2.43125H7.5625V1.475ZM7.5625 3.44375H14.5938V4.4H7.5625V3.44375ZM7.5625 8.73125H18.8125V9.6875H7.5625V8.73125ZM7.5625 10.6438H14.5938V11.6H7.5625V10.6438ZM7.5625 16.1H18.8125V17.0562H7.5625V16.1ZM7.5625 18.0688H14.5938V19.025H7.5625V18.0688Z" fill="black"/>
</svg>
